<?xml version="1.0" standalone="no"?>
<!DOCTYPE svg PUBLIC "-//W3C//DTD SVG 20010904//EN"
 "http://www.w3.org/TR/2001/REC-SVG-20010904/DTD/svg10.dtd">
<svg version="1.0" xmlns="http://www.w3.org/2000/svg"
 width="512.000000pt" height="512.000000pt" viewBox="0 0 512.000000 512.000000"
 preserveAspectRatio="xMidYMid meet">
<metadata>
Created by potrace 1.14, written by Peter Selinger 2001-2017
</metadata>
<g transform="translate(0.000000,512.000000) scale(0.100000,-0.100000)"
fill="#000000" stroke="none">
<path d="M2528 5035 c-2 -2 -31 -5 -64 -9 -34 -3 -86 -15 -116 -25 -61 -21
-170 -71 -178 -81 -3 -4 -16 -13 -30 -20 -50 -26 -147 -106 -235 -195 -307
-307 -604 -842 -839 -1510 -41 -117 -42 -123 -40 -230 2 -60 5 -131 8 -157 4
-27 8 -72 11 -100 3 -29 8 -64 12 -78 3 -14 7 -38 10 -55 19 -128 95 -360 161
-490 45 -90 129 -217 181 -275 38 -42 41 -49 41 -103 0 -38 -4 -59 -12 -61
-258 -68 -461 -178 -613 -331 -128 -128 -216 -260 -281 -420 -21 -52 -60 -207
-69 -270 -10 -77 -16 -118 -21 -145 -19 -112 -26 -243 -16 -278 14 -46 57 -89
105 -106 28 -9 487 -12 2029 -11 1824 0 1996 2 2023 17 39 21 71 56 84 91 15
38 14 88 -3 205 -8 53 -17 117 -20 142 -19 158 -44 262 -91 375 -69 165 -137
267 -265 395 -139 140 -285 228 -503 301 l-127 43 0 54 c0 49 4 58 39 98 98
111 218 329 276 499 30 90 70 261 80 345 4 30 8 57 10 60 4 7 16 176 19 279 3
73 -1 93 -39 203 -167 488 -438 1026 -653 1298 -93 118 -110 137 -187 216
-208 212 -405 314 -632 328 -29 1 -54 2 -55 1z"/>
</g>
</svg>
